<svg width="222" height="41" viewBox="0 0 222 41" fill="none" xmlns="http://www.w3.org/2000/svg">
<path d="M74.3142 9.7793C78.4935 9.7793 81.517 11.2251 84.3305 13.7466C84.704 14.0936 84.704 14.6025 84.3772 14.9379L82.556 16.8579C82.2642 17.2396 81.8906 17.2396 81.517 16.8579C79.5675 15.1114 76.9175 14.001 74.3609 14.001C68.4422 14.001 63.9711 19.1249 63.9711 25.0932C63.9711 31.0614 68.4889 36.1391 74.4076 36.1391C77.4312 36.1391 79.5442 34.9015 81.5287 33.3284C81.9023 33.0277 82.2759 33.074 82.521 33.2822L84.4239 35.2022C84.7507 35.5029 84.669 36.0581 84.3772 36.3588C81.5637 39.1695 78.0032 40.4996 74.3142 40.4996C66.0374 40.4996 59.3716 33.7217 59.3716 25.1857C59.3716 16.6497 66.0374 9.7793 74.3142 9.7793Z" fill="#FCF3E7"/>
<path d="M100.615 9.7793C108.892 9.7793 115.523 16.6497 115.523 25.1857C115.523 33.7217 108.904 40.4996 100.615 40.4996C92.3269 40.4996 85.7545 33.7217 85.7545 25.1857C85.7545 16.6497 92.3386 9.7793 100.615 9.7793ZM100.615 36.2316C106.534 36.2316 111.379 31.2812 111.379 25.1857C111.379 19.0902 106.534 14.0473 100.615 14.0473C94.6967 14.0473 89.8987 19.1249 89.8987 25.1857C89.8987 31.2465 94.7434 36.2316 100.615 36.2316Z" fill="#FCF3E7"/>
<path d="M118.057 10.5427C118.057 10.1147 118.43 9.7793 118.839 9.7793H119.878L137.844 31.2002H137.891V11.0169C137.891 10.5889 138.218 10.2073 138.673 10.2073H141.323C141.731 10.2073 142.105 10.5889 142.105 11.0169V39.7246C142.105 40.1526 141.731 40.488 141.323 40.488H140.249L122.283 18.4772H122.236V39.2504C122.236 39.6784 121.909 40.0601 121.454 40.0601H118.851C118.442 40.0601 118.068 39.6784 118.068 39.2504V10.5427H118.057Z" fill="#FCF3E7"/>
<path d="M144.498 38.9613L157.211 10.2535C157.339 9.99906 157.713 9.7793 157.911 9.7793H158.32C158.53 9.7793 158.904 9.98749 159.021 10.2535L171.652 38.9613C171.897 39.5164 171.57 40.0716 170.951 40.0716H168.348C167.846 40.0716 167.566 39.8172 167.391 39.4355L164.822 33.5945H151.281C150.452 35.5607 149.588 37.4808 148.759 39.4355C148.631 39.7362 148.304 40.0716 147.802 40.0716H145.199C144.58 40.0716 144.241 39.5164 144.498 38.9613ZM163.246 29.9164L158.157 18.2227H157.946L152.892 29.9164H163.246Z" fill="#FCF3E7"/>
<path d="M174.033 11.0167C174.033 10.5887 174.407 10.207 174.815 10.207H177.547C178.002 10.207 178.329 10.5887 178.329 11.0167V22.9185H193.482V11.0167C193.482 10.5887 193.809 10.207 194.264 10.207H196.996C197.404 10.207 197.778 10.5887 197.778 11.0167V39.2618C197.778 39.6897 197.404 40.0714 196.996 40.0714H194.264C193.809 40.0714 193.482 39.6897 193.482 39.2618V26.932H178.329V39.2618C178.329 39.6897 178.002 40.0714 177.547 40.0714H174.815C174.407 40.0714 174.033 39.6897 174.033 39.2618V11.0167Z" fill="#FCF3E7"/>
<path d="M202.448 11.0167C202.448 10.5887 202.774 10.207 203.23 10.207H212.662C217.752 10.207 221.931 14.475 221.931 19.6336C221.931 24.7922 217.752 29.2337 212.697 29.2337H206.697V39.2618C206.697 39.6897 206.323 40.0714 205.915 40.0714H203.23C202.774 40.0714 202.448 39.6897 202.448 39.2618V11.0167ZM212.429 25.0583C215.289 25.0583 217.682 22.664 217.682 19.5989C217.682 16.6958 215.277 14.475 212.429 14.475H206.72V25.0583H212.429Z" fill="#FCF3E7"/>
<path d="M32.1363 8.29062C34.2876 8.29062 36.0316 6.54663 36.0316 4.39531C36.0316 2.24399 34.2876 0.5 32.1363 0.5C29.985 0.5 28.241 2.24399 28.241 4.39531C28.241 6.54663 29.985 8.29062 32.1363 8.29062Z" fill="#FCF3E7"/>
<path d="M6.57334 14.6207C8.85911 14.6207 10.7121 12.8767 10.7121 10.7254C10.7121 8.57407 8.85911 6.83008 6.57334 6.83008C4.28756 6.83008 2.43457 8.57407 2.43457 10.7254C2.43457 12.8767 4.28756 14.6207 6.57334 14.6207Z" fill="#FCF3E7"/>
<path d="M49.6652 23.8719C51.5476 23.8719 53.0736 22.4549 53.0736 20.7069C53.0736 18.959 51.5476 17.542 49.6652 17.542C47.7828 17.542 46.2568 18.959 46.2568 20.7069C46.2568 22.4549 47.7828 23.8719 49.6652 23.8719Z" fill="#FCF3E7"/>
<path d="M13.5861 30.0352C14.2601 29.2818 14.7482 28.4474 15.0736 27.5781C16.8283 22.9884 19.1292 21.0529 22.0461 20.8327C25.3463 20.5893 28.5072 22.3858 29.9598 25.3296C31.3891 28.2272 31.1102 31.5535 29.6344 33.941C28.5072 35.7607 28.9139 38.1714 30.6454 39.5275C32.0748 40.6517 34.0852 40.7096 35.6307 39.7708C36.4558 39.2725 36.9671 38.6003 37.2809 37.8701C38.9775 33.9526 42.1267 32.7125 46.0894 34.4046C47.9255 35.1928 50.1567 34.6365 51.3536 32.8979C52.5273 31.2058 52.2949 28.8646 50.8074 27.439C48.9249 25.6194 45.9383 25.8628 44.3811 27.8563C44.1487 28.1576 43.9628 28.4705 43.8234 28.8067C42.7542 31.2753 41.1041 32.6777 39.0472 32.9559C36.8509 33.2572 34.7243 32.1214 33.5738 30.2322C31.8424 27.3579 31.5635 23.3477 34.213 19.778C36.2466 17.0427 35.5842 13.1021 32.6093 11.1898C30.3898 9.76419 27.4497 9.96122 25.4393 11.6418C24.7304 12.2329 24.2191 12.9399 23.8589 13.6932C21.372 19.0131 17.9439 21.134 11.0412 17.9468C7.83386 16.4632 3.90605 17.2977 1.64 20.1837C-1.1025 23.6723 -0.335529 28.7603 3.41798 31.2985C6.61368 33.4543 10.9947 32.9211 13.5629 30.07L13.5861 30.0352Z" fill="#FCF3E7"/>
<path d="M13.5861 30.0352C14.2601 29.2818 14.7482 28.4474 15.0736 27.5781C16.8283 22.9884 19.1292 21.0529 22.0461 20.8327C25.3463 20.5893 28.5072 22.3858 29.9598 25.3296C31.3891 28.2272 31.1102 31.5535 29.6344 33.941C28.5072 35.7607 28.9139 38.1714 30.6454 39.5275C32.0748 40.6517 34.0852 40.7096 35.6307 39.7708C36.4558 39.2725 36.9671 38.6003 37.2809 37.8701C38.9775 33.9526 42.1267 32.7125 46.0894 34.4046C47.9255 35.1928 50.1567 34.6365 51.3536 32.8979C52.5273 31.2058 52.2949 28.8646 50.8074 27.439C48.9249 25.6194 45.9383 25.8628 44.3811 27.8563C44.1487 28.1576 43.9628 28.4705 43.8234 28.8067C42.7542 31.2753 41.1041 32.6777 39.0472 32.9559C36.8509 33.2572 34.7243 32.1214 33.5738 30.2322C31.8424 27.3579 31.5635 23.3477 34.213 19.778C36.2466 17.0427 35.5842 13.1021 32.6093 11.1898C30.3898 9.76419 27.4497 9.96122 25.4393 11.6418C24.7304 12.2329 24.2191 12.9399 23.8589 13.6932C21.372 19.0131 17.9439 21.134 11.0412 17.9468C7.83386 16.4632 3.90605 17.2977 1.64 20.1837C-1.1025 23.6723 -0.335529 28.7603 3.41798 31.2985C6.61368 33.4543 10.9947 32.9211 13.5629 30.07L13.5861 30.0352Z" fill="#FCF3E7"/>
</svg>
